# xmcd
#
# Track frame offsets:
#      150
#      16247
#      30937
#      49850
#      64432
#      82050
#      99900
#      115170
#      136840
#      154902
#      166087
#      191435
# 
# Disc length: 2707 seconds
#
# Revision: 1
# Processed by: cddbd v1.4PL0 Copyright (c) Steve Scherf et al.
#
# Submitted via: FreeRIP 1.21
#
DISCID=900a910c
DTITLE=Hangdogs - Beware of Dog
DYEAR=2000
DGENRE=Country
TTITLE0=The Gun Song
TTITLE1=Out There
TTITLE2=Anacostia
TTITLE3=Angelita Turns
TTITLE4=St. Claire of Cedar Rapids
TTITLE5=Waltz this Waltz Alone
TTITLE6=Meet Me at Tommy's
TTITLE7=Other People's Houses
TTITLE8=Come the Night
TTITLE9=Beware of Dog
TTITLE10=The World is Yours
TTITLE11=Somewhere Near Heaven
EXTD=Shanachie 5743
EXTT0=
EXTT1=
EXTT2=
EXTT3=
EXTT4=
EXTT5=
EXTT6=
EXTT7=
EXTT8=
EXTT9=
EXTT10=
EXTT11=
PLAYORDER=
